<svg width="72" height="72" viewBox="0 0 72 72" fill="none" xmlns="http://www.w3.org/2000/svg">
    <g clip-path="url(#clip0_33_12575)">
        <path d="M72 36C72 16.1177 55.8823 0 36 0C16.1177 0 0 16.1177 0 36C0 55.8823 16.1177 72 36 72C55.8823 72 72 55.8823 72 36Z" fill="black"/>
        <path fill-rule="evenodd" clip-rule="evenodd" d="M5 36.0698C5 53.1906 18.8794 67.0698 36 67.0698C53.1208 67.0698 67 53.1906 67 36.0698C67 18.949 53.1208 5.06982 36 5.06982C18.8794 5.06982 5 18.949 5 36.0698ZM56.2723 33.228C55.1167 23.0494 46.4654 15.1448 35.9702 15.1448C29.3412 15.1448 23.4484 18.3004 19.7184 23.1814C18.9388 24.2018 19.1342 25.6608 20.1544 26.4404C21.1746 27.2202 22.6338 27.025 23.4134 26.0048C26.3004 22.2266 30.85 19.7948 35.9702 19.7948C43.8984 19.7948 50.4572 25.6296 51.5828 33.228H50.4568C49.5162 33.228 48.6682 33.795 48.3084 34.6642C47.9488 35.5332 48.1482 36.5336 48.8138 37.1982L52.4354 40.815C53.3432 41.7214 54.8136 41.7214 55.7213 40.815L59.3429 37.1982C60.0085 36.5336 60.208 35.5332 59.8483 34.6642C59.4886 33.795 58.6407 33.228 57.7 33.228H56.2723ZM16.2788 31.3246C17.1864 30.4182 18.6568 30.4182 19.5644 31.3246L23.1862 34.9414C23.8518 35.606 24.051 36.6064 23.6914 37.4754C23.3318 38.3446 22.4836 38.9116 21.5432 38.9116H20.4172C21.5428 46.51 28.1016 52.3448 36.0294 52.3448C41.1262 52.3448 45.657 49.9358 48.546 46.1876C49.33 45.1708 50.7898 44.9818 51.8068 45.7656C52.8238 46.5496 53.0128 48.0094 52.229 49.0266C48.4966 53.8688 42.6276 56.9948 36.0294 56.9948C25.5344 56.9948 16.8832 49.0902 15.7276 38.9116H14.3C13.3592 38.9116 12.5114 38.3446 12.1518 37.4754C11.7918 36.6064 11.9914 35.606 12.657 34.9414L16.2788 31.3246Z" fill="#6AFF9C"/>
    </g>
    <defs>
        <clipPath id="clip0_33_12575">
            <rect width="72" height="72" fill="white"/>
        </clipPath>
    </defs>
</svg>
